<svg xmlns="http://www.w3.org/2000/svg" width="24.597" height="20" viewBox="0 0 24.597 20">
  <path id="Twitter_SVG" data-name="Twitter SVG" d="M97.417,134.5a14.27,14.27,0,0,0,14.367-14.367c0-.22,0-.44-.01-.649a10.344,10.344,0,0,0,2.524-2.618,10.248,10.248,0,0,1-2.9.8,5.046,5.046,0,0,0,2.22-2.8,10.225,10.225,0,0,1-3.2,1.225,5.052,5.052,0,0,0-8.733,3.455,4.627,4.627,0,0,0,.136,1.152,14.324,14.324,0,0,1-10.408-5.277,5.047,5.047,0,0,0,1.571,6.733,4.96,4.96,0,0,1-2.283-.628v.063a5.055,5.055,0,0,0,4.052,4.953,5.034,5.034,0,0,1-1.33.178,4.821,4.821,0,0,1-.953-.094,5.042,5.042,0,0,0,4.712,3.508,10.15,10.15,0,0,1-6.272,2.157,9.182,9.182,0,0,1-1.2-.073,14.068,14.068,0,0,0,7.717,2.283" transform="translate(-89.7 -114.5)"/>
</svg>
